<svg width="74" height="74" viewBox="0 0 74 74" fill="none" xmlns="http://www.w3.org/2000/svg">
<path fill-rule="evenodd" clip-rule="evenodd" d="M45.1868 57.7744C44.706 57.7744 44.3164 57.3848 44.3164 56.904C44.3164 56.4233 44.706 56.0337 45.1868 56.0337H62.3911C65.6182 56.0337 68.2595 53.3896 68.2595 50.1653V11.6089C68.2595 8.38187 65.6154 5.74053 62.3911 5.74053H51.9196V22.3706C51.9196 23.1553 50.9498 23.5365 50.4138 22.9618L43.1144 15.1151L35.8533 22.9173C35.2814 23.5749 34.3088 23.1438 34.3088 22.3675V5.74025H23.8344C20.6074 5.74025 17.966 8.38435 17.966 11.6087V35.2339C17.966 35.7146 17.5765 36.1042 17.0957 36.1042C16.6149 36.1042 16.2254 35.7147 16.2254 35.2339V11.6087C16.2254 7.42009 19.6485 3.99951 23.8345 3.99951H62.3909C66.5794 3.99951 70 7.4227 70 11.6087V50.165C70 54.3536 66.5768 57.7742 62.3909 57.7742L45.1868 57.7744ZM7.96225 54.7766L11.8745 58.6888C12.2143 59.0287 12.7641 59.0287 13.104 58.6888L21.3178 50.475C21.6577 50.1351 21.6577 49.5853 21.3178 49.2455C20.978 48.9056 20.4282 48.9056 20.0883 49.2455L12.4934 56.8433L9.19444 53.5444C8.8546 53.2045 8.30203 53.2045 7.96494 53.5444C7.6251 53.8842 7.62517 54.4368 7.96225 54.7766ZM29.0653 51.906C27.9076 51.906 26.9683 52.8453 26.9683 54.003C26.9683 55.8652 29.2283 56.8045 30.5462 55.4867C31.8641 54.1688 30.9247 51.906 29.0653 51.906ZM29.3167 53.7516C28.9851 53.4201 28.4823 53.9229 28.8138 54.2544C29.1454 54.586 29.6482 54.0831 29.3167 53.7516ZM40.7467 50.1516H29.101C25.7523 50.1516 23.9841 54.2406 26.4071 56.6609C27.0979 57.3517 28.0538 57.7826 29.101 57.7826H40.7467V50.1516ZM29.101 48.411H40.7467V42.9017C40.7467 41.128 39.2934 39.6747 37.5196 39.6747L8.96801 39.6719C7.19424 39.6719 5.74095 41.1252 5.74095 42.899V65.0297C5.74095 66.8035 7.19424 68.2568 8.96801 68.2568H37.5196C39.2934 68.2568 40.7467 66.8035 40.7467 65.0297V59.5205L29.101 59.5232C26.0425 59.5232 23.5448 57.0256 23.5448 53.967C23.5448 50.9085 26.0424 48.411 29.101 48.411ZM8.96765 37.9344C6.23238 37.9344 4 40.1668 4 42.9021V65.0328C4 67.7681 6.23521 70.0005 8.96765 70.0005H37.5193C40.2545 70.0005 42.4869 67.7653 42.4869 65.0328V42.9021C42.4869 40.1668 40.2517 37.9344 37.5193 37.9344H8.96765ZM59.4208 40.9736H47.5764C46.684 40.9736 45.9518 41.7058 45.9518 42.5982V45.3252C45.9518 46.2176 46.684 46.9498 47.5764 46.9498H59.4208C60.3132 46.9498 61.0454 46.2176 61.0454 45.3252V42.5982C61.0454 41.7058 60.3132 40.9736 59.4208 40.9736ZM47.5764 39.233C45.7252 39.233 44.2112 40.7443 44.2112 42.5982V45.3252C44.2112 47.1764 45.7225 48.6904 47.5764 48.6904H59.4208C61.272 48.6904 62.786 47.1791 62.786 45.3252V42.5982C62.786 40.7471 61.2747 39.233 59.4208 39.233H47.5764ZM50.179 5.74096H36.0471V20.1607L42.4764 13.248C42.819 12.8777 43.4047 12.8805 43.7473 13.248C45.8885 15.555 48.0326 17.8564 50.1765 20.1607L50.179 5.74096Z" fill="#282828"/>
</svg>
