<svg width="74" height="74" viewBox="0 0 74 74" fill="none" xmlns="http://www.w3.org/2000/svg">
<path d="M70 37.0937C70 35.946 69.257 34.9344 67.9039 34.2389L60.5313 30.4545L66.7405 27.2677C68.8113 26.2055 69.9968 24.767 69.9968 23.3222C69.9968 22.1745 69.2539 21.1628 67.9008 20.4673L41.6415 6.9836C38.7171 5.48186 33.4339 5.75064 29.8647 7.58113L7.25633 19.1872C5.18553 20.2494 4 21.6879 4 23.1327C4 24.2804 4.74296 25.2921 6.09605 25.9876L13.4687 29.7719L7.25949 32.9587C5.18869 34.021 4.00316 35.4594 4.00316 36.9043C4.00316 38.0519 4.74611 39.0636 6.09921 39.7591L13.4719 43.5435L7.26264 46.7303C5.19185 47.7925 4.00631 49.231 4.00631 50.6758C4.00631 51.8235 4.74927 52.8352 6.10236 53.5307L32.3584 67.0144C33.6325 67.6688 35.3524 67.9881 37.1829 67.9881C39.5572 67.9881 42.118 67.4538 44.1319 66.42L66.7434 54.8107C68.8142 53.7484 69.9997 52.31 69.9997 50.8651C69.9997 49.7175 69.2568 48.7058 67.9037 48.0103L60.531 44.226L66.7403 41.0392C68.8142 39.9769 70 38.5385 70 37.0937ZM5.15421 23.1324C5.15421 22.1492 6.13741 21.0585 7.78459 20.2112L30.3929 8.60513C32.2361 7.65665 34.6357 7.16352 36.8361 7.16352C38.4769 7.16352 40.0102 7.43857 41.1168 8.00767L67.3793 21.4914C68.0496 21.836 68.8463 22.4304 68.8463 23.3188C68.8463 24.3019 67.8631 25.3927 66.2159 26.24L43.6076 37.8461C40.3859 39.4996 35.476 39.7746 32.8837 38.4436L6.62116 24.9599C5.95092 24.6184 5.15421 24.0208 5.15421 23.1324ZM67.3793 49.0381C68.0496 49.3827 68.8463 49.9771 68.8463 50.8654C68.8463 51.8486 67.8631 52.9394 66.2159 53.7867L43.6076 65.3927C40.3859 67.0462 35.476 67.3212 32.8837 65.9902L6.62116 52.5065C5.95092 52.1619 5.15421 51.5675 5.15421 50.6792C5.15421 49.696 6.13741 48.6052 7.78459 47.7579L14.7273 44.1917L32.3589 53.2435C33.633 53.8979 35.3529 54.2172 37.1834 54.2172C39.5577 54.2172 42.1185 53.6829 44.1323 52.6491L59.2696 44.8781L67.3793 49.0381ZM43.608 51.621C40.3864 53.2745 35.4764 53.5495 32.8841 52.2185L6.62156 38.7348C5.95132 38.3902 5.15462 37.7958 5.15462 36.9074C5.15462 35.9243 6.13781 34.8335 7.785 33.9862L14.7308 30.42L32.3592 39.4718C33.6333 40.1262 35.3532 40.4455 37.1837 40.4455C39.558 40.4455 42.1188 39.9112 44.1327 38.8774L59.2699 31.1064L67.3763 35.2669C68.0466 35.6115 68.8433 36.2059 68.8433 37.0942C68.8433 38.0774 67.8601 39.1682 66.2129 40.0155L43.608 51.621Z" fill="#282828"/>
</svg>
