<svg width="74" height="74" viewBox="0 0 74 74" fill="none" xmlns="http://www.w3.org/2000/svg">
<path d="M66.726 38.2275C66.726 37.0963 66.1492 36.065 65.192 35.4721L49.8129 25.9679C52.5683 20.8373 53.6479 13.8155 53.0711 4.77254C53.0453 4.44382 52.839 4.16345 52.5264 4.04742C52.2203 3.94107 51.8755 4.0152 51.6434 4.25368C47.7665 8.34648 43.9122 10.1351 40.5058 11.711C35.9359 13.8316 31.943 15.6782 29.2782 21.966L28.205 20.7929C28.0471 20.6188 27.8247 20.5125 27.5766 20.5286C27.3381 20.5383 27.1157 20.6446 26.9675 20.8251C25.8943 22.1045 25.0468 23.8706 24.4667 25.7913L8.80795 35.472C7.85077 36.0649 7.27393 37.0963 7.27393 38.2273C7.27393 39.3585 7.85079 40.3898 8.80795 40.9827L14.1963 44.315L8.80795 47.6408C7.85077 48.2338 7.27393 49.2651 7.27393 50.3962C7.27393 51.5274 7.85079 52.5586 8.80795 53.1516L35.2983 69.5198C35.8204 69.8356 36.4134 70 36.9999 70C37.5864 70 38.1794 69.8356 38.6982 69.5134L65.1886 53.1451C66.1458 52.5521 66.7226 51.5208 66.7226 50.3898C66.7226 49.2586 66.1457 48.2273 65.1886 47.6344L59.8002 44.3086L65.1886 40.9763C66.1458 40.3833 66.726 39.3586 66.726 38.2275ZM64.3251 49.0368C64.802 49.3333 65.076 49.8296 65.076 50.3903C65.076 50.951 64.8053 51.4473 64.3251 51.7438L37.8347 68.112C37.3223 68.4343 36.6811 68.4247 36.1686 68.112L9.67501 51.7438C9.19805 51.4473 8.92412 50.9607 8.92412 50.3903C8.92412 49.8295 9.19482 49.3333 9.67501 49.0368L15.7627 45.2759L35.299 57.345C35.8275 57.6672 36.4141 57.8316 36.9974 57.8316C37.5839 57.8316 38.1769 57.6672 38.6957 57.345L58.232 45.2759L64.3251 49.0368ZM64.3251 39.5747L37.8347 55.9496C37.3223 56.2718 36.6811 56.2622 36.1686 55.9496L9.67501 39.5747C9.19805 39.2782 8.92412 38.7916 8.92412 38.2212C8.92412 37.6604 9.19482 37.1642 9.67501 36.8677L23.9321 28.0565C23.4938 30.5155 23.5099 33.0324 24.0642 35.0434C22.3303 36.3969 20.6642 37.8569 19.0819 39.5649C18.7757 39.8936 18.7918 40.4222 19.1237 40.7283C19.2817 40.8766 19.4879 40.9507 19.6845 40.9507C19.9069 40.9507 20.1292 40.8605 20.2871 40.6864C23.3326 37.4025 26.7551 35.0273 30.3836 32.5104C35.6141 28.8816 41.0247 25.1175 45.5565 18.3433C45.811 17.963 45.7047 17.4538 45.3244 17.196C44.9441 16.9414 44.435 17.0478 44.1772 17.428C39.8201 23.9379 34.541 27.6087 29.4334 31.1472C28.0895 32.0785 26.7682 33.0035 25.4823 33.9509C24.8055 30.5187 25.7466 25.5432 27.6512 22.6391L28.9467 24.0507C29.1433 24.2666 29.4333 24.3633 29.7137 24.2988C29.9941 24.2408 30.2261 24.0442 30.3228 23.7703C32.7398 17.1122 36.462 15.3783 41.1799 13.2027C44.3382 11.7428 47.8703 10.1089 51.4926 6.70251C51.8149 14.8946 50.6579 21.2046 47.996 25.7677C47.9863 25.7838 47.9702 25.7838 47.9637 25.8C47.9541 25.8161 47.9541 25.8257 47.9476 25.8418C46.4039 28.4587 44.3575 30.5019 41.7923 31.9714L37.3869 32.7062C37.0968 32.7546 36.8519 32.9544 36.752 33.2347C36.6521 33.5054 36.7037 33.8213 36.8841 34.0501L38.6663 36.219C36.7198 38.1332 30.8448 39.1709 27.2061 36.8796C26.8194 36.6315 26.3166 36.7475 26.0685 37.1342C25.83 37.5209 25.9363 38.0236 26.3231 38.2718C28.0214 39.345 30.1839 39.8155 32.3141 39.8155C35.7784 39.8155 39.1784 38.5683 40.4224 36.6637C40.6189 36.3575 40.5964 35.9708 40.3643 35.6904L39.0624 34.1048L42.2142 33.5763C42.3044 33.5602 42.3947 33.528 42.4849 33.4764C45.1405 31.9843 47.2867 29.9444 48.9432 27.3726L64.2901 36.8603C64.767 37.1568 65.041 37.6434 65.041 38.2138C65.0764 38.7907 64.8025 39.2838 64.3255 39.5737L64.3251 39.5747Z" fill="#282828"/>
</svg>
