<svg width="74" height="74" viewBox="0 0 74 74" fill="none" xmlns="http://www.w3.org/2000/svg">
<path d="M16.197 70H57.8029C61.3499 70 64.2347 67.1152 64.2347 63.5682V10.4318C64.2347 6.88477 61.3472 4 57.8002 4H16.1971C12.6501 4 9.76534 6.88477 9.76534 10.4318V63.5655C9.76262 67.1152 12.65 70 16.197 70ZM57.8001 67.9104H16.197C13.8007 67.9104 11.8522 65.9618 11.8522 63.5655V18.9445H62.1451V63.5676C62.1451 65.9612 60.1964 67.9104 57.8001 67.9104ZM62.145 10.4318V16.8554H30.7761V6.08971H57.8028C60.1964 6.08971 62.145 8.03817 62.145 10.4318ZM16.197 6.08964H28.6863V16.8553H11.8528V10.4317C11.8528 8.03811 13.8007 6.08964 16.197 6.08964Z" fill="#323232"/>
<path d="M35.8283 13.189H40.4662C41.0443 13.189 41.5111 12.7222 41.5111 12.1442C41.5111 11.5661 41.0443 11.0994 40.4662 11.0994H35.8283C35.2502 11.0994 34.7835 11.5661 34.7835 12.1442C34.7835 12.7222 35.2503 13.189 35.8283 13.189Z" fill="#323232"/>
<path d="M50.4477 13.189H55.0856C55.6637 13.189 56.1305 12.7222 56.1305 12.1442C56.1305 11.5661 55.6637 11.0994 55.0856 11.0994H50.4477C49.8697 11.0994 49.4029 11.5661 49.4029 12.1442C49.4029 12.7222 49.8724 13.189 50.4477 13.189Z" fill="#323232"/>
<path d="M18.0749 13.189H22.7129C23.2909 13.189 23.7577 12.7222 23.7577 12.1442C23.7577 11.5661 23.2909 11.0994 22.7129 11.0994H18.0749C17.4969 11.0994 17.0301 11.5661 17.0301 12.1442C17.0301 12.7222 17.4996 13.189 18.0749 13.189Z" fill="#323232"/>
<path d="M30.938 40.3978L33.006 41.4209L34.1973 43.3966C34.3873 43.7114 34.7265 43.9014 35.0929 43.9014H35.1363C35.519 43.8851 35.8582 43.6626 36.0292 43.3206L37.0524 41.2527L39.0281 40.064C39.3564 39.8659 39.5491 39.5077 39.5328 39.125C39.5165 38.7424 39.294 38.4004 38.9521 38.2321L36.8841 37.209L35.69 35.2333C35.4946 34.9076 35.1445 34.7204 34.7537 34.7285C34.371 34.7448 34.0291 34.9673 33.8608 35.3093L32.8377 37.3773L30.862 38.5686C30.5336 38.7667 30.3409 39.1249 30.3572 39.5076C30.3708 39.8875 30.5961 40.2296 30.938 40.3978ZM34.1756 39.0083C34.3466 38.9052 34.485 38.7559 34.5746 38.5768L34.8867 37.9445L35.2503 38.5469C35.3535 38.7179 35.5027 38.8563 35.6818 38.9459L36.3141 39.258L35.7117 39.6216C35.5407 39.7247 35.4023 39.874 35.3127 40.0531L35.0006 40.6827L34.637 40.0803C34.5339 39.9093 34.3846 39.7709 34.2055 39.684L33.5759 39.3719L34.1756 39.0083Z" fill="#323232"/>
<path d="M22.5879 34.7174C22.7779 35.0322 23.1171 35.2222 23.4835 35.2222H23.5269C23.9096 35.2059 24.2489 34.9834 24.4198 34.6414L25.8338 31.7783L28.5693 30.131C28.8977 29.9329 29.0904 29.5747 29.0741 29.192C29.0578 28.8093 28.8353 28.4674 28.4933 28.2991L25.6302 26.8852L23.9829 24.1497C23.7875 23.824 23.4266 23.6395 23.0466 23.6449C22.664 23.6612 22.322 23.8837 22.1537 24.2257L20.7398 27.0887L18.0043 28.736C17.6759 28.9342 17.4832 29.2924 17.4995 29.6751C17.5158 30.0577 17.7383 30.3997 18.0803 30.5679L20.9434 31.9819L22.5879 34.7174ZM22.075 28.7199C22.246 28.6167 22.3844 28.4675 22.474 28.2884L23.1795 26.8636L23.9991 28.2259C24.1023 28.3969 24.2515 28.5353 24.4306 28.6248L25.8581 29.3304L24.4958 30.15C24.3248 30.2531 24.1864 30.4024 24.0969 30.5815L23.3913 32.0063L22.5717 30.6439C22.4686 30.473 22.3193 30.3346 22.1402 30.2477L20.7154 29.5422L22.075 28.7199Z" fill="#323232"/>
<path d="M36.9982 25.0073C34.7077 25.0073 32.4716 25.4198 30.3521 26.234C29.8147 26.4402 29.5433 27.0454 29.7523 27.5827C29.9613 28.1201 30.5665 28.3888 31.1011 28.1825C32.9817 27.4606 34.9656 27.0942 36.9982 27.0942C46.0653 27.0942 53.4413 34.4703 53.4413 43.5373C53.4413 52.6044 46.0653 59.9804 36.9982 59.9804C27.9312 59.9804 20.5579 52.6044 20.5579 43.5373C20.5579 41.1818 21.0464 38.9075 22.0071 36.7772C22.2459 36.2507 22.0125 35.632 21.486 35.3958C20.9623 35.157 20.3435 35.3931 20.1047 35.9169C19.0219 38.3159 18.4709 40.8804 18.4709 43.5347C18.4709 53.7522 26.7835 62.0648 37.001 62.0648C47.2186 62.0648 55.5311 53.7522 55.5311 43.5347C55.5284 33.3199 47.2158 25.0073 36.9982 25.0073Z" fill="#323232"/>
<path d="M23.052 43.5373C23.052 45.049 23.3017 46.5008 23.7468 47.8632C23.7549 47.8931 23.7658 47.9202 23.7793 47.95C25.6302 53.4808 30.8518 57.484 36.9981 57.484C44.6861 57.484 50.9444 51.2286 50.9444 43.5378C50.9444 35.847 44.6863 29.5916 36.9981 29.5916C29.31 29.5916 23.052 35.8465 23.052 43.5373ZM36.9982 55.3938C32.4824 55.3938 28.5474 52.8537 26.5473 49.1276C27.611 49.342 28.6477 49.4505 29.6546 49.4505C33.3074 49.4505 36.6402 48.2185 39.8937 47.0135C42.9033 45.9008 45.7718 44.856 48.7898 44.7583C48.1792 50.726 43.1236 55.3938 36.9982 55.3938ZM36.9982 31.6802C43.2455 31.6802 48.3663 36.538 48.8116 42.6738C45.4031 42.766 42.2387 43.9249 39.1721 45.0592C34.7159 46.7065 30.4962 48.2562 25.592 46.7391C25.3043 45.7187 25.1415 44.6495 25.1415 43.5395C25.1415 36.9991 30.4609 31.6802 36.9982 31.6802Z" fill="#323232"/>
</svg>
