<svg width="64" height="64" viewBox="0 0 64 64" fill="none" xmlns="http://www.w3.org/2000/svg">
<path d="M32 62C24.0435 62 16.4129 58.8393 10.7868 53.2132C5.16071 47.5871 2 39.9565 2 32C2 24.0435 5.16071 16.4129 10.7868 10.7868C16.4129 5.16071 24.0435 2 32 2C39.9565 2 47.5871 4.84463 53.2132 9.90812C58.8393 14.9716 62 21.8392 62 29C62 32.9782 60.4196 36.7936 57.6066 39.6066C54.7936 42.4196 50.9782 44 47 44H40.25C39.275 44 38.3193 44.2715 37.4899 44.7841C36.6605 45.2967 35.9903 46.0301 35.5543 46.9021C35.1182 47.7742 34.9337 48.7504 35.0212 49.7215C35.1088 50.6925 35.465 51.62 36.05 52.4L36.95 53.6C37.535 54.38 37.8912 55.3075 37.9788 56.2785C38.0663 57.2496 37.8818 58.2258 37.4457 59.0979C37.0097 59.9699 36.3395 60.7033 35.5101 61.2159C34.6807 61.7285 33.725 62 32.75 62H32Z" stroke="#323232" stroke-linecap="round" stroke-linejoin="round"/>
<path d="M36.5 17C37.3284 17 38 16.3284 38 15.5C38 14.6716 37.3284 14 36.5 14C35.6716 14 35 14.6716 35 15.5C35 16.3284 35.6716 17 36.5 17Z" fill="#282828" stroke="#323232" stroke-linecap="round" stroke-linejoin="round"/>
<path d="M48.5 29C49.3284 29 50 28.3284 50 27.5C50 26.6716 49.3284 26 48.5 26C47.6716 26 47 26.6716 47 27.5C47 28.3284 47.6716 29 48.5 29Z" fill="#282828" stroke="#323232" stroke-linecap="round" stroke-linejoin="round"/>
<path d="M15.5 35C16.3284 35 17 34.3284 17 33.5C17 32.6716 16.3284 32 15.5 32C14.6716 32 14 32.6716 14 33.5C14 34.3284 14.6716 35 15.5 35Z" fill="#282828" stroke="#323232" stroke-linecap="round" stroke-linejoin="round"/>
<path d="M21.5 20C22.3284 20 23 19.3284 23 18.5C23 17.6716 22.3284 17 21.5 17C20.6716 17 20 17.6716 20 18.5C20 19.3284 20.6716 20 21.5 20Z" fill="#282828" stroke="#323232" stroke-linecap="round" stroke-linejoin="round"/>
</svg>
