<svg width="64" height="64" viewBox="0 0 64 64" fill="none" xmlns="http://www.w3.org/2000/svg">
<path d="M41 32H26" stroke="#323232" stroke-linecap="round" stroke-linejoin="round"/>
<path d="M41 20H26" stroke="#323232" stroke-linecap="round" stroke-linejoin="round"/>
<path d="M53 47V11C53 9.4087 52.3679 7.88258 51.2426 6.75736C50.1174 5.63214 48.5913 5 47 5H8" stroke="#323232" stroke-linecap="round" stroke-linejoin="round"/>
<path d="M20 59H56C57.5913 59 59.1174 58.3679 60.2426 57.2426C61.3679 56.1174 62 54.5913 62 53V50C62 49.2043 61.6839 48.4413 61.1213 47.8787C60.5587 47.3161 59.7956 47 59 47H29C28.2044 47 27.4413 47.3161 26.8787 47.8787C26.3161 48.4413 26 49.2043 26 50V53C26 54.5913 25.3679 56.1174 24.2426 57.2426C23.1174 58.3679 21.5913 59 20 59ZM20 59C18.4087 59 16.8826 58.3679 15.7574 57.2426C14.6321 56.1174 14 54.5913 14 53V11C14 9.4087 13.3679 7.88258 12.2426 6.75736C11.1174 5.63214 9.5913 5 8 5C6.4087 5 4.88258 5.63214 3.75736 6.75736C2.63214 7.88258 2 9.4087 2 11V17C2 17.7956 2.31607 18.5587 2.87868 19.1213C3.44129 19.6839 4.20435 20 5 20H14" stroke="#323232" stroke-linecap="round" stroke-linejoin="round"/>
</svg>
