<svg width="64" height="64" viewBox="0 0 64 64" fill="none" xmlns="http://www.w3.org/2000/svg">
<path d="M32 45.334H32.0333" stroke="#323232" stroke-linecap="round" stroke-linejoin="round"/>
<path d="M45.3334 45.334H45.3667" stroke="#323232" stroke-linecap="round" stroke-linejoin="round"/>
<path d="M2 55.3333C2 57.1014 2.70238 58.7971 3.95262 60.0474C5.20286 61.2976 6.89856 62 8.66667 62H55.3333C57.1014 62 58.7971 61.2976 60.0474 60.0474C61.2976 58.7971 62 57.1014 62 55.3333V20.3333C62.0003 20.0343 61.9202 19.7408 61.768 19.4834C61.6159 19.226 61.3973 19.0143 61.1351 18.8705C60.873 18.7266 60.577 18.6559 60.2782 18.6658C59.9794 18.6757 59.6887 18.7658 59.4367 18.9267L44.5633 28.4067C44.3113 28.5675 44.0206 28.6576 43.7218 28.6675C43.423 28.6774 43.127 28.6067 42.8649 28.4629C42.6027 28.319 42.3841 28.1073 42.232 27.8499C42.0798 27.5926 41.9997 27.299 42 27V20.3333C42.0003 20.0343 41.9202 19.7408 41.768 19.4834C41.6159 19.226 41.3973 19.0143 41.1351 18.8705C40.873 18.7266 40.577 18.6559 40.2782 18.6658C39.9794 18.6757 39.6887 18.7658 39.4367 18.9267L24.5667 28.4067C24.3146 28.5684 24.0236 28.6592 23.7242 28.6696C23.4249 28.6799 23.1283 28.6094 22.8656 28.4655C22.603 28.3215 22.384 28.1094 22.2317 27.8516C22.0793 27.5937 21.9993 27.2995 22 27V8.66667C22 6.89856 21.2976 5.20286 20.0474 3.95262C18.7971 2.70238 17.1014 2 15.3333 2H8.66667C6.89856 2 5.20286 2.70238 3.95262 3.95262C2.70238 5.20286 2 6.89856 2 8.66667V55.3333Z" stroke="#323232" stroke-linecap="round" stroke-linejoin="round"/>
<path d="M18.6666 45.334H18.7" stroke="#323232" stroke-linecap="round" stroke-linejoin="round"/>
</svg>
