<svg width="64" height="64" viewBox="0 0 64 64" fill="none" xmlns="http://www.w3.org/2000/svg">
<path d="M58.8988 36.0266C58.1005 34.634 57.2737 33.1975 57.2737 31.9987C57.2737 30.7999 58.1005 29.3634 58.8988 27.9708C59.953 26.1365 61.0433 24.2375 60.4723 22.5168C59.8909 20.778 57.868 19.9435 55.9122 19.1348C54.4989 18.5509 53.034 17.9463 52.3984 17.0782C51.7577 16.2023 51.6285 14.6185 51.507 13.0864C51.3391 11.004 51.1686 8.85187 49.7217 7.78997C48.2775 6.73323 46.1718 7.21123 44.1333 7.67112C42.6167 8.01474 41.0484 8.37129 39.9866 8.01733C38.9531 7.67371 37.9042 6.48523 36.8888 5.33808C35.4368 3.69745 33.9383 2 32.0006 2C30.0628 2 28.5643 3.69745 27.1123 5.33808C26.0969 6.48781 25.0454 7.67366 24.012 8.01991C22.9527 8.37128 21.3844 8.01732 19.8678 7.6737C17.8294 7.21123 15.7237 6.73582 14.282 7.79255C12.8378 8.85445 12.6647 11.0066 12.4967 13.0864C12.3753 14.6185 12.2461 16.2023 11.6053 17.0782C10.9672 17.9463 9.50483 18.5509 8.09159 19.1348C6.13321 19.9435 4.11022 20.778 3.53148 22.5168C2.95791 24.2375 4.04821 26.1365 5.10492 27.9734C5.90324 29.3634 6.73001 30.7999 6.73001 31.9987C6.73001 33.1975 5.90324 34.634 5.10234 36.0266C4.0456 37.8635 2.95533 39.7625 3.5289 41.4806C4.10764 43.222 6.13321 44.0591 8.08901 44.8652C9.50225 45.4491 10.9646 46.0511 11.6002 46.9192C12.2409 47.7951 12.3701 49.3815 12.4916 50.9136C12.6595 52.996 12.83 55.1481 14.2769 56.2075C15.7185 57.2642 17.8268 56.7862 19.8627 56.3263C21.3793 55.9827 22.9476 55.6261 24.0068 55.9801C25.0429 56.3263 26.0918 57.5122 27.1072 58.6619C28.5592 60.3026 30.0577 62 31.9954 62C33.9332 62 35.4342 60.3026 36.8837 58.6619C37.8991 57.5148 38.948 56.3263 39.9789 55.9827C41.0408 55.6313 42.609 55.9853 44.1256 56.3289C46.1641 56.7914 48.2697 57.2693 49.714 56.21C51.1608 55.1507 51.3313 52.9985 51.4993 50.9162C51.6233 49.3841 51.7499 47.7977 52.3907 46.9218C53.0262 46.0537 54.4886 45.4491 55.9018 44.8652C57.8576 44.0565 59.8832 43.222 60.4645 41.4806C61.0433 39.7599 59.953 37.8635 58.8988 36.0266ZM59.3096 41.0931C58.9066 42.3023 57.1446 43.0309 55.4445 43.7336C53.8736 44.3821 52.2511 45.0513 51.4114 46.1984C50.564 47.3559 50.4244 49.1154 50.2875 50.818C50.1428 52.624 49.993 54.4919 49.0009 55.2205C48.0062 55.9491 46.177 55.5331 44.4071 55.1326C42.7278 54.7529 40.989 54.3575 39.6042 54.8174C38.2581 55.267 37.098 56.5795 35.9767 57.848C34.7056 59.2871 33.3905 60.7727 32.0057 60.7727C30.6209 60.7727 29.3058 59.2871 28.0346 57.848C26.9107 56.5769 25.7507 55.2644 24.402 54.8149C23.955 54.6676 23.4745 54.6082 22.9681 54.6082C21.9036 54.6082 20.7384 54.8717 19.599 55.1301C17.8292 55.5305 16 55.9465 15.0078 55.2179C14.0131 54.4893 13.8658 52.6213 13.7212 50.8154C13.5843 49.1128 13.4447 47.3533 12.5973 46.1959C11.7577 45.0487 10.1351 44.3796 8.56423 43.731C6.86162 43.0283 5.09955 42.3023 4.69907 41.0905C4.2986 39.8917 5.25197 38.2356 6.17177 36.6338C7.05277 35.1042 7.96221 33.5205 7.96221 31.9961C7.96221 30.4718 7.05277 28.8906 6.17435 27.3611C5.25201 25.7592 4.30123 24.1031 4.70165 22.9017C5.10211 21.6952 6.86413 20.9666 8.56681 20.2638C10.1377 19.6153 11.7628 18.9436 12.6025 17.799C13.4499 16.6441 13.5894 14.882 13.7264 13.1794C13.871 11.3734 14.0209 9.50289 15.013 8.77428C16.0051 8.04825 17.8343 8.46166 19.6041 8.86212C21.2835 9.24192 23.0223 9.63723 24.4071 9.17733C25.7558 8.72777 26.9158 7.41526 28.0371 6.14416C29.3083 4.70764 30.6234 3.21946 32.0082 3.21946C33.393 3.21946 34.7081 4.70764 35.9792 6.14416C37.1005 7.41275 38.2606 8.72519 39.6067 9.17475C40.9916 9.63463 42.7303 9.24192 44.4097 8.85954C46.1795 8.45908 48.0087 8.0431 49.0034 8.7717C49.9981 9.50289 50.1479 11.3709 50.2926 13.1768C50.4295 14.8794 50.569 16.6389 51.4165 17.7964C52.2561 18.9436 53.8813 19.6127 55.4496 20.2612C57.1522 20.964 58.9117 21.6926 59.3147 22.8991C59.7126 24.1005 58.7618 25.7541 57.842 27.3559C56.9636 28.8854 56.0542 30.4666 56.0542 31.9936C56.0542 33.5205 56.9636 35.1017 57.842 36.6338C58.7566 38.2382 59.7075 39.8943 59.3096 41.0931ZM32.0032 13.8773C22.0099 13.8773 13.8819 22.0081 13.8819 31.9987C13.8819 41.992 22.0126 50.1201 32.0032 50.1201C41.9965 50.1201 50.1272 41.992 50.1272 31.9987C50.1272 22.0054 41.9965 13.8773 32.0032 13.8773ZM32.0032 48.8958C22.6866 48.8958 15.1061 41.3154 15.1061 31.9987C15.1061 22.6821 22.6866 15.1016 32.0032 15.1016C41.3199 15.1016 48.9003 22.6821 48.9003 31.9987C48.9003 41.3154 41.3199 48.8958 32.0032 48.8958ZM38.0619 24.2972L28.4304 33.9287L24.5756 30.0739C23.5137 29.0146 21.7879 29.0172 20.7286 30.0739C20.2144 30.5881 19.9328 31.2702 19.9328 31.9961C19.9328 32.7221 20.2145 33.4042 20.7286 33.9183L26.5082 39.6979C27.0224 40.2121 27.7044 40.4937 28.4304 40.4937C29.1564 40.4937 29.8385 40.2121 30.3526 39.6979L41.9095 28.1437C42.4236 27.6296 42.7052 26.9475 42.7052 26.2189C42.7052 25.4929 42.4236 24.8082 41.9095 24.2941C40.8476 23.2373 39.1217 23.2373 38.0624 24.2966L38.0619 24.2972ZM41.0434 27.2787L29.4839 38.833C29.2023 39.1146 28.8277 39.2696 28.4272 39.2696C28.0293 39.2696 27.6546 39.1146 27.3704 38.833L21.5908 33.0533C21.3092 32.7717 21.1542 32.3971 21.1542 31.9966C21.1542 31.5987 21.3092 31.2241 21.5908 30.9399C21.8828 30.6479 22.2651 30.5032 22.6475 30.5032C23.03 30.5032 23.4149 30.6479 23.7069 30.9399L27.9931 35.2261C28.1068 35.3398 28.2644 35.4044 28.4272 35.4044C28.59 35.4044 28.745 35.3398 28.8612 35.2261L38.9273 25.1601C39.5112 24.5762 40.4594 24.5762 41.0433 25.1601C41.3249 25.4417 41.4799 25.8189 41.4799 26.2168C41.4799 26.6225 41.325 26.9971 41.0434 27.2787Z" fill="#323232"/>
</svg>
