<svg width="64" height="64" viewBox="0 0 64 64" fill="none" xmlns="http://www.w3.org/2000/svg">
<path d="M8.00627 37.9984C7.43872 38.0004 6.88226 37.8412 6.40155 37.5395C5.92084 37.2378 5.53562 36.8058 5.29063 36.2939C5.04564 35.7819 4.95095 35.2109 5.01755 34.6473C5.08415 34.0836 5.30932 33.5505 5.66688 33.1097L35.3591 2.51768C35.5819 2.26059 35.8854 2.08686 36.2199 2.025C36.5543 1.96315 36.8999 2.01685 37.1999 2.17728C37.4998 2.33771 37.7363 2.59535 37.8705 2.9079C38.0047 3.22045 38.0287 3.56935 37.9385 3.89732L32.18 21.9526C32.0102 22.4071 31.9532 22.8959 32.0138 23.3773C32.0744 23.8586 32.2509 24.318 32.5282 24.7162C32.8054 25.1143 33.175 25.4393 33.6054 25.6631C34.0358 25.887 34.5141 26.0031 34.9992 26.0016H55.9938C56.5613 25.9996 57.1178 26.1588 57.5985 26.4605C58.0792 26.7622 58.4644 27.1942 58.7094 27.7061C58.9544 28.2181 59.0491 28.7891 58.9825 29.3527C58.9159 29.9164 58.6907 30.4495 58.3332 30.8903L28.6409 61.4823C28.4182 61.7394 28.1147 61.9131 27.7802 61.975C27.4457 62.0368 27.1001 61.9832 26.8002 61.8227C26.5002 61.6623 26.2638 61.4046 26.1295 61.0921C25.9953 60.7795 25.9714 60.4307 26.0616 60.1027L31.8201 42.0474C31.9899 41.5929 32.0469 41.1041 31.9863 40.6227C31.9256 40.1414 31.7491 39.682 31.4719 39.2838C31.1947 38.8857 30.825 38.5607 30.3946 38.3369C29.9642 38.113 29.4859 37.9969 29.0008 37.9984H8.00627Z" stroke="#323232" stroke-linecap="round" stroke-linejoin="round"/>
</svg>
